<?xml version="1.0" encoding="UTF-8"?>
<svg id="Calque_1" data-name="Calque 1" xmlns="http://www.w3.org/2000/svg" viewBox="0 0 812.65 812.65">
  <defs>
    <style>
      .cls-1 {
        fill: #fff;
      }

      .cls-2 {
        fill: #4f46e5;
      }
    </style>
  </defs>
  <rect class="cls-2" x="5.18" y="5.18" width="802.3" height="802.3" rx="57.39" ry="57.39"/>
  <path class="cls-1" d="M538.3,605.67c-32.97,19.16-67.94,30.53-105.86,30.6l-335.92.61c-10.68.02-19.12-9.63-19.05-17.87.1-10.99,8.76-18.85,19.56-19.33,64.1-2.85,139.05-17.51,197.97-42.89,27.07-11.66,52.32-24.4,72.47-45.23,18.85-19.49,21.48-46.21,8-69.38-8-13.75-19.73-23.8-31.38-34.79-15.56-14.67-30.58-28.37-44.19-45.08-35.28-43.34-54.31-96.57-57.12-152.59-1.61-32.18-.22-62.46,6.8-93.38,1.64-7.2,9.25-11.74,15.37-12.38,7.89-.82,14.33,3.79,17.46,11.53l9.91,24.49c18.06,44.61,48.54,82.06,87.74,110.22,25.48,18.3,51.79,32.47,78.91,47.9,35.24,20.04,63.03,44,77.36,83.95,12.01-9.28,22.07-18.55,34.18-25.46,33.19-18.95,73.15-18.05,104.02,4.15l60.63,43.6-34.74,16.72c-25.93,12.48-42.95,32.54-54.23,59.04-22.25,52.23-57.69,96.37-107.9,125.55ZM667.29,399.03c-31.75-26.63-64.7-26.18-95.15-.63-22.41,18.8-32.79,39.4-51.06,32.48-14.77-5.59-9.84-29.25-23.64-51.75-12.09-19.7-28.94-34.73-48.93-46.09l-53.46-30.36c-47.63-27.05-86.16-63.65-116.92-110.63-.05,80.41,27.28,134.12,84.25,184.54,15.81,13.99,30.17,27.73,41.63,45.33,18.5,28.4,20.03,63.27,4.36,93.11-27.44,44.26-74.09,64.11-121.04,85.4l135.1.55c45.29.18,88.19-15.47,123.34-43.14,30.97-24.38,52.89-55.11,68.39-90.94,13.97-32.29,23.24-48.5,53.13-67.86Z"/>
</svg>