<?xml version="1.0" encoding="UTF-8"?>
<svg id="Calque_1" data-name="Calque 1" xmlns="http://www.w3.org/2000/svg" viewBox="0 0 648.04 359.15">
  <defs>
    <style>
      .cls-1 {
        fill: #4f46e5;
      }
    </style>
  </defs>
  <path class="cls-1" d="M280.77,314.8c-19.26,11.19-39.68,17.83-61.83,17.87l-196.22.36c-6.24.01-11.17-5.62-11.13-10.44.06-6.42,5.12-11.01,11.43-11.29,37.44-1.66,81.22-10.23,115.64-25.05,15.81-6.81,30.56-14.25,42.33-26.42,11.01-11.38,12.55-26.99,4.67-40.53-4.68-8.03-11.53-13.9-18.33-20.32-9.09-8.57-17.86-16.57-25.81-26.33-20.61-25.31-31.72-56.41-33.36-89.13-.94-18.79-.13-36.48,3.97-54.54.96-4.21,5.4-6.86,8.98-7.23,4.61-.48,8.37,2.21,10.2,6.74l5.79,14.3c10.55,26.06,28.35,47.94,51.25,64.38,14.88,10.69,30.25,18.97,46.09,27.98,20.59,11.71,36.82,25.7,45.19,49.04,7.01-5.42,12.89-10.83,19.96-14.87,19.39-11.07,42.73-10.54,60.76,2.43l35.41,25.47-20.29,9.77c-15.14,7.29-25.09,19.01-31.68,34.48-12.99,30.51-33.7,56.29-63.03,73.34ZM356.11,194.09c-18.54-15.55-37.79-15.29-55.58-.37-13.09,10.98-19.15,23.01-29.83,18.97-8.63-3.27-5.75-17.08-13.81-30.23-7.06-11.51-16.9-20.29-28.58-26.92l-31.23-17.73c-27.82-15.8-50.33-37.18-68.3-64.62-.03,46.97,15.94,78.34,49.21,107.8,9.24,8.17,17.62,16.2,24.32,26.48,10.8,16.59,11.7,36.96,2.54,54.39-16.03,25.85-43.28,37.45-70.7,49.88l78.92.32c26.46.11,51.52-9.03,72.05-25.2,18.09-14.24,30.89-32.19,39.95-53.12,8.16-18.86,13.58-28.33,31.03-39.64Z"/>
  <g>
    <path class="cls-1" d="M402.73,313.36c-5.04,0-9.49-.9-13.35-2.71-3.86-1.8-6.88-4.39-9.06-7.75-2.18-3.36-3.27-7.41-3.27-12.14v-2.62h12.14v2.62c0,3.92,1.21,6.86,3.64,8.82s5.73,2.94,9.9,2.94,7.39-.84,9.48-2.52c2.08-1.68,3.13-3.83,3.13-6.44,0-1.8-.51-3.27-1.54-4.39-1.03-1.12-2.52-2.04-4.48-2.75s-4.34-1.38-7.14-2.01l-2.15-.47c-4.48-1-8.33-2.26-11.53-3.78-3.21-1.52-5.67-3.53-7.38-6.02-1.71-2.49-2.57-5.73-2.57-9.71s.95-7.39,2.85-10.22c1.9-2.83,4.58-5.01,8.03-6.54,3.46-1.52,7.52-2.29,12.19-2.29s8.82.79,12.47,2.38c3.64,1.59,6.5,3.95,8.59,7.1,2.08,3.14,3.13,7.08,3.13,11.81v2.8h-12.14v-2.8c0-2.49-.48-4.5-1.45-6.02-.97-1.53-2.35-2.65-4.16-3.36-1.81-.71-3.95-1.07-6.44-1.07-3.74,0-6.49.7-8.26,2.1s-2.66,3.32-2.66,5.74c0,1.62.42,2.99,1.26,4.11.84,1.12,2.1,2.05,3.78,2.8s3.83,1.4,6.44,1.96l2.15.47c4.67,1,8.73,2.27,12.19,3.83,3.45,1.56,6.15,3.61,8.08,6.16,1.93,2.55,2.89,5.82,2.89,9.8s-1.01,7.49-3.03,10.5c-2.02,3.02-4.89,5.39-8.59,7.1-3.7,1.71-8.08,2.57-13.12,2.57Z"/>
    <path class="cls-1" d="M437,330.73v-64.99h11.58v5.6h1.68c1.06-1.8,2.71-3.41,4.95-4.81,2.24-1.4,5.45-2.1,9.62-2.1,3.73,0,7.19.92,10.36,2.75,3.17,1.84,5.73,4.53,7.66,8.08,1.93,3.55,2.89,7.84,2.89,12.89v1.49c0,5.04-.97,9.34-2.89,12.89-1.93,3.55-4.48,6.24-7.66,8.08s-6.63,2.75-10.36,2.75c-2.8,0-5.15-.33-7.05-.98-1.9-.65-3.42-1.49-4.58-2.52-1.15-1.03-2.07-2.07-2.75-3.13h-1.68v24h-11.77ZM461.28,303.09c3.67,0,6.71-1.17,9.1-3.5,2.4-2.33,3.59-5.74,3.59-10.22v-.93c0-4.48-1.21-7.89-3.64-10.22-2.43-2.33-5.45-3.5-9.06-3.5s-6.63,1.17-9.06,3.5c-2.43,2.33-3.64,5.74-3.64,10.22v.93c0,4.48,1.21,7.89,3.64,10.22,2.43,2.33,5.45,3.5,9.06,3.5Z"/>
    <path class="cls-1" d="M510.95,313.36c-3.3,0-6.26-.58-8.87-1.73-2.61-1.15-4.68-2.83-6.21-5.04-1.53-2.21-2.29-4.9-2.29-8.08s.76-5.84,2.29-7.98c1.52-2.15,3.64-3.77,6.35-4.86,2.71-1.09,5.8-1.63,9.29-1.63h12.7v-2.61c0-2.18-.69-3.97-2.05-5.37-1.37-1.4-3.55-2.1-6.54-2.1s-5.11.67-6.54,2.01c-1.43,1.34-2.37,3.07-2.8,5.18l-10.83-3.64c.75-2.37,1.94-4.53,3.59-6.49,1.65-1.96,3.86-3.55,6.63-4.76,2.77-1.21,6.15-1.82,10.13-1.82,6.1,0,10.92,1.53,14.47,4.58,3.55,3.05,5.32,7.47,5.32,13.26v17.27c0,1.87.87,2.8,2.62,2.8h3.73v9.71h-7.84c-2.3,0-4.2-.56-5.7-1.68s-2.24-2.61-2.24-4.48v-.09h-1.77c-.25.75-.81,1.73-1.68,2.94-.87,1.21-2.24,2.29-4.11,3.22-1.87.93-4.42,1.4-7.66,1.4ZM513,303.84c3.3,0,5.99-.92,8.08-2.75,2.08-1.83,3.13-4.28,3.13-7.33v-.93h-11.86c-2.18,0-3.89.47-5.14,1.4-1.25.93-1.87,2.24-1.87,3.92s.65,3.05,1.96,4.11c1.31,1.06,3.21,1.59,5.7,1.59Z"/>
    <path class="cls-1" d="M550.54,312.05v-46.31h11.58v5.23h1.68c.68-1.87,1.82-3.24,3.41-4.11,1.59-.87,3.44-1.31,5.56-1.31h5.6v10.46h-5.79c-2.99,0-5.45.79-7.38,2.38-1.93,1.59-2.89,4.03-2.89,7.33v26.33h-11.77Z"/>
    <path class="cls-1" d="M607.87,313.36c-4.61,0-8.75-.93-12.42-2.8-3.67-1.87-6.57-4.58-8.68-8.12-2.12-3.55-3.17-7.81-3.17-12.79v-1.49c0-4.98,1.06-9.24,3.17-12.79,2.12-3.55,5.01-6.26,8.68-8.12,3.67-1.87,7.81-2.8,12.42-2.8s8.75.93,12.42,2.8c3.67,1.87,6.57,4.58,8.68,8.12,2.12,3.55,3.17,7.81,3.17,12.79v1.49c0,4.98-1.06,9.24-3.17,12.79-2.12,3.55-5.01,6.26-8.68,8.12-3.67,1.87-7.81,2.8-12.42,2.8ZM607.87,302.9c3.61,0,6.6-1.17,8.96-3.5,2.37-2.33,3.55-5.68,3.55-10.04v-.93c0-4.36-1.17-7.7-3.5-10.04-2.33-2.33-5.34-3.5-9.01-3.5s-6.6,1.17-8.96,3.5c-2.37,2.33-3.55,5.68-3.55,10.04v.93c0,4.36,1.18,7.7,3.55,10.04,2.37,2.33,5.35,3.5,8.96,3.5Z"/>
  </g>
</svg>