<?xml version="1.0" encoding="UTF-8"?>
<svg id="Calque_1" data-name="Calque 1" xmlns="http://www.w3.org/2000/svg" viewBox="0 0 812.65 658.56">
  <defs>
    <style>
      .cls-1 {
        fill: #4f46e5;
      }
    </style>
  </defs>
  <path class="cls-1" d="M552.27,589.46c-36.45,21.19-75.12,33.76-117.06,33.83l-371.46.68c-11.81.02-21.15-10.65-21.06-19.76.11-12.15,9.69-20.84,21.63-21.37,70.89-3.15,153.76-19.37,218.91-47.42,29.94-12.89,57.85-26.98,80.13-50.01,20.85-21.55,23.76-51.1,8.85-76.73-8.85-15.21-21.82-26.32-34.7-38.47-17.2-16.22-33.82-31.37-48.86-49.85-39.01-47.92-60.06-106.79-63.16-168.73-1.78-35.58-.25-69.07,7.52-103.26,1.81-7.96,10.23-12.98,17-13.69,8.73-.91,15.84,4.19,19.31,12.75l10.96,27.08c19.97,49.33,53.67,90.75,97.02,121.88,28.17,20.23,57.27,35.91,87.26,52.96,38.97,22.16,69.7,48.65,85.55,92.83,13.28-10.26,24.4-20.51,37.79-28.15,36.7-20.96,80.89-19.96,115.03,4.59l67.04,48.22-38.41,18.49c-28.67,13.8-47.49,35.98-59.97,65.28-24.6,57.76-63.8,106.57-119.32,138.84ZM694.9,360.96c-35.1-29.44-71.54-28.95-105.21-.7-24.78,20.79-36.26,43.57-56.47,35.91-16.33-6.18-10.88-32.34-26.15-57.23-13.37-21.79-32-38.41-54.11-50.96l-59.11-33.57c-52.67-29.91-95.28-70.39-129.29-122.34-.05,88.92,30.17,148.31,93.17,204.07,17.48,15.47,33.36,30.66,46.04,50.13,20.45,31.41,22.15,69.96,4.82,102.96-30.35,48.94-81.93,70.9-133.85,94.44l149.4.6c50.08.2,97.53-17.1,136.39-47.7,34.25-26.96,58.48-60.94,75.63-100.56,15.45-35.71,25.7-53.64,58.75-75.04Z"/>
</svg>